<?xml version="1.0" encoding="iso-8859-1"?>
<!-- Generator: Adobe Illustrator 19.0.0, SVG Export Plug-In . SVG Version: 6.00 Build 0)  -->
<svg version="1.1" id="Layer_1" xmlns="http://www.w3.org/2000/svg" xmlns:xlink="http://www.w3.org/1999/xlink" x="0px" y="0px"
	 viewBox="0 0 473.931 473.931" style="enable-background:new 0 0 473.931 473.931;" xml:space="preserve">
<circle style="fill:#4ABC96;" cx="236.966" cy="236.966" r="236.966"/>
<rect x="133.343" y="93.275" transform="matrix(-0.9875 0.1577 -0.1577 -0.9875 519.173 445.5233)" style="fill:#FFFFFF;" width="217.137" height="300.168"/>
<circle style="fill:#0EA24A;" cx="318.985" cy="334.85" r="63.064"/>
<g>
	<rect x="311.352" y="302.147" style="fill:#FFFFFF;" width="19.285" height="67.056"/>
	<rect x="287.464" y="326.02" style="fill:#FFFFFF;" width="67.052" height="19.289"/>
</g>
<g>
	
		<rect x="135.412" y="124.691" transform="matrix(-0.9875 0.1577 -0.1577 -0.9875 465.6303 223.639)" style="fill:#2F8442;" width="177.062" height="11.203"/>
	
		<rect x="140.472" y="152.322" transform="matrix(-0.9875 0.1577 -0.1577 -0.9875 480.0456 277.7547)" style="fill:#2F8442;" width="177.062" height="11.199"/>
	
		<rect x="145.116" y="181.679" transform="matrix(-0.9875 0.1578 -0.1578 -0.9875 493.9225 335.3499)" style="fill:#2F8442;" width="177.065" height="11.207"/>
	
		<rect x="150.161" y="216.429" transform="matrix(-0.9875 0.1578 -0.1578 -0.9875 430.4904 409.8853)" style="fill:#2F8442;" width="97.625" height="11.207"/>
</g>
<g>
</g>
<g>
</g>
<g>
</g>
<g>
</g>
<g>
</g>
<g>
</g>
<g>
</g>
<g>
</g>
<g>
</g>
<g>
</g>
<g>
</g>
<g>
</g>
<g>
</g>
<g>
</g>
<g>
</g>
</svg>
