<svg id="eye" xmlns="http://www.w3.org/2000/svg" viewBox="0 0 200 200">
  <defs>
    <style>
      .cls-1 {
        fill: #70c1b3;
      }

      .cls-2 {
        fill: #4b4a4b;
      }

      .cls-3 {
        fill: #fff;
      }

      .cls-4 {
        fill: #1f92d0;
      }

      .cls-5 {
        fill: #36a5dd;
      }
    </style>
  </defs>
  <circle id="Ellipse_2" data-name="Ellipse 2" class="cls-1" cx="100" cy="100" r="100" transform="translate(0 0)"/>
  <path id="Path_22" data-name="Path 22" class="cls-2" d="M208.07,172.016c-35.312-43.051-72.034-41.284-73.813-41.165-1.792-.117-38.5-1.884-73.817,41.165.361-.361-2.479,2.882-2.368,6.933h0v.013c-.111,4.041,2.73,7.276,2.368,6.918,35.315,43.051,72.024,41.284,73.817,41.172,1.779.111,38.5,1.877,73.813-41.172-.358.36,2.479-2.877,2.368-6.918v-.013h0C210.551,174.9,207.713,171.656,208.07,172.016Z" transform="translate(-33.549 -75.577)"/>
  <path id="Path_23" data-name="Path 23" class="cls-3" d="M211.066,179.183c-31.84-38.814-64.947-37.223-66.552-37.115-1.616-.106-34.71-1.7-66.55,37.115a11.276,11.276,0,0,0-2.138,6.25h0v.011a11.223,11.223,0,0,0,2.138,6.237C109.8,230.494,142.9,228.9,144.515,228.8c1.6.1,34.71,1.693,66.55-37.122a11.231,11.231,0,0,0,2.135-6.237v-.011h0A11.235,11.235,0,0,0,211.066,179.183Z" transform="translate(-43.808 -82.059)"/>
  <circle id="Ellipse_3" data-name="Ellipse 3" class="cls-4" cx="34.739" cy="34.739" r="34.739" transform="translate(66.587 68.877)"/>
  <circle id="Ellipse_4" data-name="Ellipse 4" class="cls-5" cx="31.58" cy="31.58" r="31.58" transform="translate(69.746 72.036)"/>
  <circle id="Ellipse_5" data-name="Ellipse 5" class="cls-2" cx="22.896" cy="22.896" r="22.896" transform="translate(78.43 80.72)"/>
  <circle id="Ellipse_6" data-name="Ellipse 6" class="cls-3" cx="9.624" cy="9.624" r="9.624" transform="translate(100.782 84.123)"/>
</svg>
