<svg xmlns="http://www.w3.org/2000/svg" viewBox="0 0 200 200">
  <defs>
    <style>
      .cls-1 {
        fill: #247ba0;
      }

      .cls-2 {
        fill: #70c1b3;
        stroke: #b2dbbf;
        stroke-width: 3px;
      }

      .cls-3 {
        fill: #f25f5c;
      }

      .cls-4 {
        fill: #f7fff7;
      }

      .cls-5 {
        stroke: none;
      }

      .cls-6 {
        fill: none;
      }
    </style>
  </defs>
  <g id="Group_34" data-name="Group 34" transform="translate(-505 -526.824)">
    <path id="Path_80" data-name="Path 80" class="cls-1" d="M200,100a99.956,99.956,0,1,1-5.669-33.228,97.594,97.594,0,0,1,5.354,26.3A51.028,51.028,0,0,1,200,100Z" transform="translate(505 526.824)"/>
    <g id="Rectangle_21" data-name="Rectangle 21" class="cls-2" transform="translate(615 636)">
      <rect class="cls-5" width="44" height="43" rx="3"/>
      <rect class="cls-6" x="1.5" y="1.5" width="41" height="40" rx="1.5"/>
    </g>
    <g id="Rectangle_22" data-name="Rectangle 22" class="cls-2" transform="translate(549 636)">
      <rect class="cls-5" width="44" height="43" rx="3"/>
      <rect class="cls-6" x="1.5" y="1.5" width="41" height="40" rx="1.5"/>
    </g>
    <g id="Rectangle_23" data-name="Rectangle 23" class="cls-2" transform="translate(549 575)">
      <rect class="cls-5" width="44" height="43" rx="3"/>
      <rect class="cls-6" x="1.5" y="1.5" width="41" height="40" rx="1.5"/>
    </g>
    <path id="Path_83" data-name="Path 83" class="cls-3" d="M50,25a24.989,24.989,0,1,1-1.417-8.307,24.4,24.4,0,0,1,1.339,6.575A12.757,12.757,0,0,1,50,25Z" transform="translate(611.69 571.514)"/>
    <g id="Group_32" data-name="Group 32" transform="translate(635.232 297.04) rotate(45)">
      <rect id="Rectangle_17" data-name="Rectangle 17" class="cls-4" width="6" height="43" rx="2" transform="translate(210 189)"/>
      <rect id="Rectangle_18" data-name="Rectangle 18" class="cls-4" width="6" height="43" rx="2" transform="translate(234.5 207.5) rotate(90)"/>
    </g>
  </g>
</svg>
