<svg xmlns="http://www.w3.org/2000/svg" viewBox="0 0 200 200">
  <defs>
    <style>
      .cls-1 {
        fill: #247ba0;
      }

      .cls-2 {
        fill: #b5885b;
      }

      .cls-3 {
        fill: #fff;
      }

      .cls-4 {
        fill: #e7eced;
      }

      .cls-5 {
        fill: #c7cac7;
      }

      .cls-6 {
        fill: #f7b563;
      }

      .cls-7 {
        fill: #edeada;
      }

      .cls-8 {
        fill: #cec9ae;
      }
    </style>
  </defs>
  <g id="Group_37" data-name="Group 37" transform="translate(-817 -543.824)">
    <path id="Path_89" data-name="Path 89" class="cls-1" d="M200,100a99.956,99.956,0,1,1-5.669-33.228,97.594,97.594,0,0,1,5.354,26.3A51.028,51.028,0,0,1,200,100Z" transform="translate(817 543.824)"/>
    <g id="folder1" transform="translate(849 578.045)">
      <g id="Group_35" data-name="Group 35" transform="translate(9.394 1.955)">
        <path id="Path_84" data-name="Path 84" class="cls-2" d="M121.428,51.277V15.5a1.8,1.8,0,0,0-1.8-1.8H47.3a1.8,1.8,0,0,1-1.545-.876l-6-9.993a1.806,1.806,0,0,0-1.545-.876H5.8A1.808,1.808,0,0,0,4,3.761V51.277H121.428Z" transform="translate(-4 -1.955)"/>
      </g>
      <rect id="Rectangle_24" data-name="Rectangle 24" class="cls-3" width="103.336" height="9.394" transform="translate(16.44 41.883)"/>
      <rect id="Rectangle_25" data-name="Rectangle 25" class="cls-4" width="98.639" height="7.046" transform="translate(18.789 34.837)"/>
      <rect id="Rectangle_26" data-name="Rectangle 26" class="cls-5" width="93.942" height="7.046" transform="translate(21.137 27.791)"/>
      <path id="Path_85" data-name="Path 85" class="cls-6" d="M123.823,100.458H12.187a.637.637,0,0,1-.629-.54L.007,23.689a.637.637,0,0,1,.629-.733H135.373a.637.637,0,0,1,.629.733l-11.55,76.229A.637.637,0,0,1,123.823,100.458Z" transform="translate(0 28.321)"/>
      <rect id="Rectangle_27" data-name="Rectangle 27" class="cls-7" width="44.623" height="28.183" transform="translate(63.308 84.157)"/>
      <g id="Group_36" data-name="Group 36" transform="translate(70.354 91.202)">
        <path id="Path_86" data-name="Path 86" class="cls-8" d="M32.3,44.653H41.7a2.349,2.349,0,0,0,0-4.7H32.3a2.349,2.349,0,0,0,0,4.7Z" transform="translate(-29.956 -39.956)"/>
        <path id="Path_87" data-name="Path 87" class="cls-8" d="M40.3,44.653h2.349a2.349,2.349,0,0,0,0-4.7H40.3a2.349,2.349,0,1,0,0,4.7Z" transform="translate(-19.168 -39.956)"/>
        <path id="Path_88" data-name="Path 88" class="cls-8" d="M58.139,43.956H32.3a2.349,2.349,0,1,0,0,4.7H58.139a2.349,2.349,0,1,0,0-4.7Z" transform="translate(-29.956 -34.562)"/>
      </g>
    </g>
  </g>
</svg>
