<svg xmlns="http://www.w3.org/2000/svg" viewBox="0 0 251.61 317.247">
  <defs>
    <style>
      .cls-1 {
        fill: #edeada;
      }

      .cls-2 {
        fill: #c1bca4;
      }

      .cls-3 {
        fill: #cec9ae;
      }

      .cls-4 {
        fill: #70c1b3;
      }

      .cls-5 {
        fill: #efce4a;
      }

      .cls-6 {
        fill: #ebba16;
      }
    </style>
  </defs>
  <g id="Group_24" data-name="Group 24" transform="translate(-1490.29 -524.974)">
    <g id="files" transform="translate(1484.29 524.974)">
      <path id="Path_14" data-name="Path 14" class="cls-1" d="M235.261,81.577,158.684,5H11V294.9H235.261Z" transform="translate(22.349 22.349)"/>
      <path id="Path_15" data-name="Path 15" class="cls-2" d="M33.349,27.349H181.033l49.228,49.228V0H6V289.9H33.349Z" transform="translate(0)"/>
      <g id="Group_9" data-name="Group 9" transform="translate(71.637 87.517)">
        <path id="Path_16" data-name="Path 16" class="cls-3" d="M23.47,34.94H160.214a5.47,5.47,0,1,0,0-10.94H23.47a5.47,5.47,0,1,0,0,10.94Z" transform="translate(-18 19.758)"/>
        <path id="Path_17" data-name="Path 17" class="cls-3" d="M23.47,26.94h54.7a5.47,5.47,0,0,0,0-10.94H23.47a5.47,5.47,0,1,0,0,10.94Z" transform="translate(-18 -16)"/>
        <path id="Path_18" data-name="Path 18" class="cls-3" d="M160.214,32H23.47a5.47,5.47,0,1,0,0,10.94H160.214a5.47,5.47,0,1,0,0-10.94Z" transform="translate(-18 55.517)"/>
        <path id="Path_19" data-name="Path 19" class="cls-3" d="M160.214,40H23.47a5.47,5.47,0,1,0,0,10.94H160.214a5.47,5.47,0,1,0,0-10.94Z" transform="translate(-18 91.275)"/>
        <path id="Path_20" data-name="Path 20" class="cls-3" d="M160.214,48H23.47a5.47,5.47,0,1,0,0,10.94H160.214a5.47,5.47,0,1,0,0-10.94Z" transform="translate(-18 127.033)"/>
      </g>
      <path id="Path_21" data-name="Path 21" class="cls-3" d="M38,5V81.577h76.577Z" transform="translate(143.033 22.349)"/>
    </g>
    <g id="Group_22" data-name="Group 22" transform="translate(-347 -113)">
      <circle id="Ellipse_11" data-name="Ellipse 11" class="cls-4" cx="40.5" cy="40.5" r="40.5" transform="translate(2004 871)"/>
      <g id="folder" transform="translate(2021.706 887.5)">
        <path id="Path_63" data-name="Path 63" class="cls-5" d="M45.648,48.224h-44A1.647,1.647,0,0,1,0,46.578V20.5H47.294V46.578a1.647,1.647,0,0,1-1.646,1.646Z" transform="translate(0 -3.138)"/>
        <path id="Path_64" data-name="Path 64" class="cls-6" d="M21.216,10.023V5.146A1.647,1.647,0,0,0,19.57,3.5H1.646A1.647,1.647,0,0,0,0,5.146V17.362H47.294V11.67a1.647,1.647,0,0,0-1.646-1.646Z"/>
        <path id="Path_65" data-name="Path 65" class="cls-1" d="M34,37.5H49.493v9.785H34Z" transform="translate(-6.276 -6.276)"/>
        <g id="Group_21" data-name="Group 21" transform="translate(30.17 33.67)">
          <path id="Path_66" data-name="Path 66" class="cls-3" d="M37.815,42.131h3.262a.815.815,0,0,0,0-1.631H37.815a.815.815,0,0,0,0,1.631Zm6.523,0h.815a.815.815,0,1,0,0-1.631h-.815a.815.815,0,0,0,0,1.631Zm2.446,1.631h-8.97a.815.815,0,0,0,0,1.631h8.97a.815.815,0,0,0,0-1.631Z" transform="translate(-37 -40.5)"/>
        </g>
      </g>
    </g>
  </g>
</svg>
