<svg xmlns="http://www.w3.org/2000/svg" viewBox="0 0 511.999 511.999"><path fill="#146a8a" d="M272.834 274.974l-67.711 67.712-35.806-35.805 67.712-67.712z"/><path fill="#f7b93f" d="M182.216 286.023L0 468.239l21.881 21.882 99.061-83.157 83.156-99.06z"/><path fill="#f79a30" d="M225.972 329.79L43.763 511.997l-21.881-21.881 182.209-182.209z"/><path d="M238.262 46.968c-62.622 62.622-62.622 164.151 0 226.771l129.3-97.472 97.472-129.3c-62.621-62.62-164.15-62.62-226.772.001z" fill="#82c8db"/><path d="M465.034 46.968L238.262 273.74c62.622 62.622 164.151 62.622 226.771 0s62.622-164.151.001-226.772z" fill="#62b3cd"/><path d="M441.165 70.837l-179.03 179.03c49.437 49.437 129.593 49.437 179.03 0s49.436-129.593 0-179.03z" fill="#9ef3d3"/><path d="M441.165 70.837c-49.436-49.437-129.593-49.437-179.03 0-49.433 49.433-49.436 129.586-.007 179.022 36.259 36.259 105.731 25.573 155.166-23.864 49.436-49.435 60.123-118.906 23.871-155.158z" fill="#c7ffea"/></svg>