<svg height="512pt" viewBox="-72 0 512 512" width="512pt" xmlns="http://www.w3.org/2000/svg"><path d="m245.875 0h-228.273438c-9.722656 0-17.601562 7.878906-17.601562 17.601562v476.796876c0 9.722656 7.878906 17.601562 17.601562 17.601562h332.796876c9.722656 0 17.601562-7.878906 17.601562-17.601562v-372.273438zm0 0" fill="#e4e3e1"/><path d="m263.476562 122.125h104.523438l-122.125-122.125v104.523438c0 9.71875 7.882812 17.601562 17.601562 17.601562zm0 0" fill="#d1d0cf"/><path d="m20.605469 494.398438v-476.796876c0-9.722656 7.878906-17.601562 17.597656-17.601562h-20.601563c-9.722656 0-17.601562 7.878906-17.601562 17.601562v476.796876c0 9.722656 7.878906 17.601562 17.601562 17.601562h20.601563c-9.71875 0-17.597656-7.878906-17.597656-17.601562zm0 0" fill="#d1d0cf"/><path d="m266.480469 104.523438v-83.917969l-20.605469-20.605469v104.523438c0 9.71875 7.882812 17.601562 17.601562 17.601562h20.605469c-9.722656 0-17.601562-7.882812-17.601562-17.601562zm0 0" fill="#c1c1c1"/><g fill="#ed5454"><path d="m88.289062 285.78125c-1.859374-1.863281-1.859374-4.878906 0-6.738281l41.117188-41.117188c4.792969-4.789062 4.738281-12.59375-.164062-17.316406-4.808594-4.632813-12.554688-4.277344-17.277344.445313l-52.777344 52.777343c-4.738281 4.738281-4.738281 12.417969 0 17.15625l52.777344 52.777344c4.722656 4.722656 12.46875 5.082031 17.277344.445313 4.902343-4.722657 4.957031-12.527344.164062-17.316407zm0 0"/><path d="m308.8125 273.832031-52.945312-52.945312c-4.792969-4.789063-12.589844-4.734375-17.3125.164062-4.636719 4.808594-4.28125 12.554688.441406 17.277344l41.4375 41.4375c1.460937 1.460937 1.460937 3.828125 0 5.289063l-41.4375 41.4375c-4.722656 4.722656-5.078125 12.472656-.441406 17.28125 4.722656 4.898437 12.523437 4.949218 17.3125.160156l52.945312-52.945313c4.738281-4.738281 4.738281-12.417969 0-17.15625zm0 0"/><path d="m150.199219 360.792969c-6.140625-2.675781-8.953125-9.824219-6.273438-15.96875l58.617188-134.519531c2.675781-6.144532 9.824219-8.953126 15.96875-6.277344 6.140625 2.675781 8.949219 9.828125 6.273437 15.96875l-58.617187 134.523437c-2.679688 6.144531-9.832031 8.949219-15.96875 6.273438zm0 0"/></g><path d="m79.792969 290.988281c-4.738281-4.738281-4.738281-12.417969 0-17.15625l51.160156-51.15625c-.484375-.734375-1.050781-1.429687-1.710937-2.066406-4.808594-4.632813-12.554688-4.277344-17.277344.445313l-52.777344 52.777343c-4.738281 4.738281-4.738281 12.417969 0 17.15625l52.777344 52.777344c4.722656 4.722656 12.46875 5.082031 17.277344.445313.660156-.636719 1.226562-1.332032 1.710937-2.066407zm0 0" fill="#ea3f3f"/><path d="m259.601562 326.492188 41.4375-41.4375c1.460938-1.460938 1.460938-3.828126 0-5.285157l-41.4375-41.441406c-4.1875-4.1875-4.933593-10.742187-1.824218-15.53125l-1.910156-1.910156c-4.792969-4.789063-12.59375-4.738281-17.316407.160156-4.636719 4.808594-4.277343 12.554687.445313 17.28125l41.4375 41.4375c1.460937 1.460937 1.460937 3.828125 0 5.289063l-41.4375 41.4375c-4.722656 4.722656-5.082032 12.46875-.445313 17.277343 4.722657 4.898438 12.523438 4.953125 17.316407.164063l1.910156-1.910156c-3.109375-4.785157-2.363282-11.34375 1.824218-15.53125zm0 0" fill="#ea3f3f"/><path d="m164.527344 344.828125 58.621094-134.523437c.234374-.542969.519531-1.050782.824218-1.542969-1.253906-2.027344-3.113281-3.707031-5.464844-4.734375-6.140624-2.675782-13.289062.132812-15.964843 6.277344l-58.617188 134.519531c-2.679687 6.144531.132813 13.292969 6.273438 15.96875 5.59375 2.4375 12.019531.3125 15.144531-4.734375-2.023438-3.269532-2.464844-7.441406-.816406-11.230469zm0 0" fill="#ea3f3f"/></svg>