<?xml version="1.0" encoding="iso-8859-1"?>
<!-- Generator: Adobe Illustrator 19.0.0, SVG Export Plug-In . SVG Version: 6.00 Build 0)  -->
<svg version="1.1" id="Capa_1" xmlns="http://www.w3.org/2000/svg" xmlns:xlink="http://www.w3.org/1999/xlink" x="0px" y="0px"
	 viewBox="0 0 468.293 468.293" style="enable-background:new 0 0 468.293 468.293;" xml:space="preserve">
<rect x="147.543" y="273.046" style="fill:#2F4859;" width="179.468" height="140.663"/>
<path style="fill:#D5D6DB;" d="M412.289,149.741c-2.253-30.785-27.881-55.077-59.241-55.077c-2.406,0-4.765,0.185-7.096,0.462
	c0.029-0.956,0.144-1.89,0.144-2.854C346.096,41.312,304.785,0,253.825,0c-45.732,0-83.59,33.304-90.898,76.961
	c-10.212-5.341-21.806-8.403-34.13-8.403C88.04,68.557,55,101.597,55,142.354c0,2.53,0.13,5.03,0.378,7.494
	c-23.958,4.961-41.967,26.178-41.967,51.606c0,29.109,23.598,52.707,52.708,52.707h336.055c29.109,0,52.707-23.598,52.707-52.707
	C454.881,175.808,436.556,154.461,412.289,149.741z"/>
<g>
	<path style="fill:#64798A;" d="M350.035,289.924H118.257c-6.897,0-12.488-5.591-12.488-12.488v-46.55
		c0-6.897,5.591-12.488,12.488-12.488h231.778c6.897,0,12.488,5.591,12.488,12.488v46.55
		C362.523,284.333,356.932,289.924,350.035,289.924z"/>
	<path style="fill:#64798A;" d="M350.035,379.108H118.257c-6.897,0-12.488-5.591-12.488-12.488v-46.55
		c0-6.897,5.591-12.488,12.488-12.488h231.778c6.897,0,12.488,5.591,12.488,12.488v46.55
		C362.523,373.517,356.932,379.108,350.035,379.108z"/>
	<path style="fill:#64798A;" d="M350.035,468.293H118.257c-6.897,0-12.488-5.591-12.488-12.488v-46.55
		c0-6.897,5.591-12.488,12.488-12.488h231.778c6.897,0,12.488,5.591,12.488,12.488v46.55
		C362.523,462.702,356.932,468.293,350.035,468.293z"/>
</g>
<path style="fill:#F6C358;" d="M145.572,266.649h-12.488c-3.448,0-6.244-2.796-6.244-6.244v-12.488c0-3.448,2.795-6.244,6.244-6.244
	h12.488c3.448,0,6.244,2.795,6.244,6.244v12.488C151.816,263.854,149.021,266.649,145.572,266.649z"/>
<path style="fill:#44C4A1;" d="M189.28,266.649h-12.488c-3.448,0-6.244-2.796-6.244-6.244v-12.488c0-3.448,2.796-6.244,6.244-6.244
	h12.488c3.448,0,6.244,2.795,6.244,6.244v12.488C195.524,263.854,192.728,266.649,189.28,266.649z"/>
<rect x="241.577" y="247.945" style="fill:#D5D6DB;" width="99.902" height="12.488"/>
<path style="fill:#F6C358;" d="M145.572,355.834h-12.488c-3.448,0-6.244-2.795-6.244-6.244v-12.488c0-3.448,2.795-6.244,6.244-6.244
	h12.488c3.448,0,6.244,2.795,6.244,6.244v12.488C151.816,353.038,149.021,355.834,145.572,355.834z"/>
<path style="fill:#44C4A1;" d="M189.28,355.834h-12.488c-3.448,0-6.244-2.795-6.244-6.244v-12.488c0-3.448,2.796-6.244,6.244-6.244
	h12.488c3.448,0,6.244,2.795,6.244,6.244v12.488C195.524,353.038,192.728,355.834,189.28,355.834z"/>
<rect x="241.577" y="337.108" style="fill:#D5D6DB;" width="99.902" height="12.488"/>
<path style="fill:#F6C358;" d="M145.572,445.018h-12.488c-3.448,0-6.244-2.796-6.244-6.244v-12.488c0-3.448,2.795-6.244,6.244-6.244
	h12.488c3.448,0,6.244,2.796,6.244,6.244v12.488C151.816,442.222,149.021,445.018,145.572,445.018z"/>
<path style="fill:#44C4A1;" d="M189.28,445.018h-12.488c-3.448,0-6.244-2.796-6.244-6.244v-12.488c0-3.448,2.796-6.244,6.244-6.244
	h12.488c3.448,0,6.244,2.796,6.244,6.244v12.488C195.524,442.222,192.728,445.018,189.28,445.018z"/>
<rect x="241.577" y="426.271" style="fill:#D5D6DB;" width="99.902" height="12.488"/>
<g>
</g>
<g>
</g>
<g>
</g>
<g>
</g>
<g>
</g>
<g>
</g>
<g>
</g>
<g>
</g>
<g>
</g>
<g>
</g>
<g>
</g>
<g>
</g>
<g>
</g>
<g>
</g>
<g>
</g>
</svg>
