<svg xmlns="http://www.w3.org/2000/svg" viewBox="0 0 491.52 491.52"><circle cx="245.76" cy="245.76" r="245.76" fill="#efc84a"/><path d="M142.361 167.436l17.868 208.582a11.371 11.371 0 0 0 11.34 10.542h148.38a11.37 11.37 0 0 0 11.34-10.542l17.869-208.582H142.361z" fill="#ebf0f3"/><path d="M287.338 146.106h-83.156v-29.939c0-6.179 5.027-11.207 11.206-11.207h60.744c6.179 0 11.206 5.028 11.206 11.207v29.939zm-74.191-8.965h65.226v-20.974a2.243 2.243 0 0 0-2.241-2.242h-60.744a2.243 2.243 0 0 0-2.241 2.242v20.974z" fill="#3a556a"/><path d="M346.462 135.52H145.058c-6.28 0-11.371 5.091-11.371 11.371v20.545h224.146v-20.545c0-6.28-5.09-11.371-11.371-11.371z" fill="#64798a"/><g fill="#e1e6e9"><path d="M349.159 167.436H142.362l204.505 26.755zM188.324 195.808a3.705 3.705 0 0 0-3.705 3.705V359.43a3.705 3.705 0 0 0 3.705 3.705V195.808z"/></g><path d="M188.324 195.808v167.327a3.705 3.705 0 0 0 3.705-3.705V199.514a3.707 3.707 0 0 0-3.705-3.706z" fill="#d5d6db"/><path d="M217.042 195.808a3.705 3.705 0 0 0-3.705 3.705V359.43a3.705 3.705 0 0 0 3.705 3.705V195.808z" fill="#e1e6e9"/><path d="M217.042 195.808v167.327a3.705 3.705 0 0 0 3.705-3.705V199.514a3.707 3.707 0 0 0-3.705-3.706z" fill="#d5d6db"/><path d="M245.759 195.808a3.705 3.705 0 0 0-3.705 3.705V359.43a3.705 3.705 0 0 0 3.705 3.705V195.808z" fill="#e1e6e9"/><path d="M245.759 195.808v167.327a3.706 3.706 0 0 0 3.706-3.705V199.514a3.707 3.707 0 0 0-3.706-3.706z" fill="#d5d6db"/><path d="M274.477 195.808a3.705 3.705 0 0 0-3.705 3.705V359.43a3.705 3.705 0 0 0 3.705 3.705V195.808z" fill="#e1e6e9"/><path d="M274.477 195.808v167.327a3.706 3.706 0 0 0 3.706-3.705V199.514a3.707 3.707 0 0 0-3.706-3.706z" fill="#d5d6db"/><path d="M303.196 195.808a3.705 3.705 0 0 0-3.705 3.705V359.43a3.705 3.705 0 0 0 3.705 3.705V195.808z" fill="#e1e6e9"/><path d="M303.196 195.808v167.327a3.706 3.706 0 0 0 3.706-3.705V199.514a3.708 3.708 0 0 0-3.706-3.706z" fill="#d5d6db"/></svg>