<?xml version="1.0" encoding="iso-8859-1"?>
<!-- Generator: Adobe Illustrator 19.0.0, SVG Export Plug-In . SVG Version: 6.00 Build 0)  -->
<svg version="1.1" id="Layer_1" xmlns="http://www.w3.org/2000/svg" xmlns:xlink="http://www.w3.org/1999/xlink" x="0px" y="0px"
	 viewBox="0 0 473.931 473.931" style="enable-background:new 0 0 473.931 473.931;" xml:space="preserve">
<circle style="fill:#F2BE3E;" cx="236.966" cy="236.966" r="236.966"/>
<polygon style="fill:#F7D98B;" points="370.704,100.051 175.923,208.064 165.936,217.4 262.017,308.849 268.902,301.073 "/>
<polygon style="fill:#626463;" points="371.299,98.94 286.297,146.183 326.977,186.867 "/>
<g>
	<path style="fill:#E84849;" d="M270.645,286.866l-28.965,1.658L99.879,430.205c8.007,5.691,16.355,10.93,25.055,15.607
		l137.079-136.963L270.645,286.866z"/>
	<path style="fill:#E84849;" d="M66.207,401.188l144.144-144.013l1.287-29.313l-28.213,2.402l-141.45,141.33
		C49.249,382.112,57.365,391.998,66.207,401.188z"/>
</g>
<g>
	<path style="fill:#F06668;" d="M183.425,230.26l3.97-26.66l-19.263,11.352L30.211,352.747c3.637,6.473,7.558,12.763,11.764,18.847
		L183.425,230.26z"/>
	<path style="fill:#F06668;" d="M99.883,430.205l141.801-141.682l-0.374-31l-30.959-0.348L66.207,401.188
		C76.489,411.874,87.759,421.592,99.883,430.205z"/>
</g>
<g>
</g>
<g>
</g>
<g>
</g>
<g>
</g>
<g>
</g>
<g>
</g>
<g>
</g>
<g>
</g>
<g>
</g>
<g>
</g>
<g>
</g>
<g>
</g>
<g>
</g>
<g>
</g>
<g>
</g>
</svg>
