<svg xmlns="http://www.w3.org/2000/svg" viewBox="0 0 497.472 497.472"><path d="M30.467 492.321c-26.197 0-37.746-19.029-25.684-42.282L226.775 22.59c12.06-23.254 31.829-23.254 43.904 0l221.995 427.449c12.089 23.254.526 42.282-25.685 42.282H30.468z" fill="#ffcc4d"/><path d="M217.006 146.153c0-18.518 13.668-29.98 31.744-29.98 17.65 0 31.759 11.89 31.759 29.98v169.785c0 18.076-14.109 29.98-31.759 29.98-18.076 0-31.744-11.478-31.744-29.98V146.153zm-2.645 260.167c0-18.959 15.432-34.389 34.389-34.389 18.959 0 34.404 15.431 34.404 34.389 0 18.972-15.445 34.404-34.404 34.404-18.957 0-34.389-15.432-34.389-34.404" fill="#231f20"/></svg>